<?xml version="1.0" encoding="utf-8"?>
<!-- Generator: Adobe Illustrator 25.0.1, SVG Export Plug-In . SVG Version: 6.00 Build 0)  -->
<svg version="1.1" id="Camada_1" xmlns="http://www.w3.org/2000/svg" xmlns:xlink="http://www.w3.org/1999/xlink" x="0px" y="0px"
	 viewBox="0 0 500 500" style="enable-background:new 0 0 500 500;" xml:space="preserve">
<style type="text/css">
	.st0{fill:#123A5F;}
	.st1{fill:#145593;}
	.st2{fill:#D2D700;}
	.st3{fill:#0B5690;}
</style>
<rect x="-1" class="st0" width="501" height="501"/>
<g>
	<path class="st1" d="M119.7,376.9c44.3,45.3,110.8,68.9,181.8,53.4c74.9-16.3,132.5-76.5,146.5-151.8c6.5-35.4,3.4-69.6-7.2-100.2
		l59.2,78.5V500H216"/>
	<path class="st2" d="M452.8,245.1c0,106.8-86.6,193.5-193.5,193.5c-56.4,0-107.2-24.1-142.5-62.7c-31.6-34.4-50.9-80.4-50.9-130.8
		c0-106.8,86.6-193.5,193.5-193.5c70.9,0,132.9,38.1,166.6,95C443,175.5,452.8,209.2,452.8,245.1z"/>
</g>
<g>
	<circle class="st3" cx="377.9" cy="355.3" r="64.6"/>
	<path class="st2" d="M428.3,357.1c-2.6,0.4-5,0.7-7.4,1.2c-0.4,0.1-0.8,0.8-1,1.4c-1.1,3.2-1.9,6.5-3.3,9.5
		c-3,6.7-7.3,12.3-13.8,15.9c-11.1,6-22.4,5.3-33.5,0.2c-12-5.5-20.1-15.2-26.2-26.7c-1.5-2.7-1.3-2.6,1-4.7
		c4.7-4.4,9.2-9,13.7-13.6c5.6-5.6,11.2-11.2,18.3-15.1c7.9-4.4,15.8-3.7,22.6,2.1c4.4,3.7,7,8.6,9.2,13.8c0.7,1.3,0.3,3-1,3.9
		c-0.3-0.3-0.7-0.5-1-0.8c-9.2-7.9-21.7-7.9-30.6,0.4c-4.2,4-8,8.5-11.9,12.8c-0.2,0.5-0.2,1,0.1,1.5c5.2,7.3,11.3,13.6,19.7,17.3
		c4.1,1.8,8.4,2.7,12.8,1.7c7.3-1.6,12.5-6.4,16.8-12.3c1.4-2,2.6-4.2,4.2-6.7c-1.2,0.1-1.8,0.1-2.3,0.2c-3.5,0.4-7,0.9-10.6,1.1
		c-5.5,0.2-11,0.2-16.6,0.2c-1.3,0-2.5-0.4-2.3-2.2c0.4,0,0.8-0.1,1.1-0.1c13.4-0.2,26.7-2.7,39.4-7.2c2.4-0.8,2.4-0.8,1.9-3.5
		c-2.7-15.2-10.7-26.9-24-34.8c-19.8-11.7-43.9-8.7-60.4,7.3c-12,11.7-16.8,26.2-14.7,42.7c1.7,12.9,7.9,23.4,17.9,31.7
		c9.4,7.8,20.3,11.8,32.4,11.4c20.3-0.6,35.2-10.4,44.5-28.5C426.6,371,428.3,364.1,428.3,357.1z"/>
</g>
<path class="st3" d="M183.7,384.9c1.5-2.6,4.5-3.8,7.4-3.1c1.3,0.4,2.6,0.8,3.9,1.4c8.1,3.7,16.2,6.9,24.5,9.6
	c8,2.5,16.2,4.5,24.8,5.5c27,3.4,52.9-0.2,77.4-10.9c3.9,3.2,7.4,7,10.9,10.7c-46.7,21.8-94,21-141.2-0.6c-2.6-1.2-4.9-2.7-7-4.6
	C182.2,390.9,182.2,387.5,183.7,384.9z"/>
<path class="st3" d="M114.6,216.2c-1.4,8.6-2.1,17.3-2.5,26.2c-0.1,1.4-0.2,2.7-0.5,4.1c-0.7,2.9-3.2,5-6.1,5.2
	c-3,0.2-6-1.3-6.8-4.2c-0.7-2.7-1-5.5-0.9-8.3c2-53.5,23.9-97,66.7-129.1c33.2-24.9,71-35.3,112.3-31.6
	c36.4,3.2,68.3,17.3,95.6,41.7c1.2,1.1,2.4,2.4,3.3,3.8c2.2,3.1,1.5,7.3-1.6,9.5c-2,1.4-4.7,1.7-6.9,0.6c-1.2-0.6-2.3-1.3-3.2-2.2
	c-22.2-20.3-48.1-33.1-77.7-37.8c-41.2-6.5-78.9,2.6-112.8,27.1c-24.8,18-42.3,41.6-52.6,70.4C117.9,199.7,116,207.9,114.6,216.2z"
	/>
<g>
	<path class="st3" d="M322.2,184.1c0,0-13.7-2.6-23,6.4L262.5,227c0,0-4.8,4-8.9-2.2l-32.2-32.3c0,0-6-9.1-27.9-8.7l43.9-43.9
		c0,0,21.3-16.8,41.2,0L322.2,184.1z"/>
	<path class="st3" d="M195,298.8c0,0,13.7,2.6,23-6.4l36.6-36.5c0,0,4.8-4,8.9,2.2l32.2,32.3c0,0,6,9.1,27.9,8.7L279.9,343
		c0,0-21.3,16.8-41.2,0L195,298.8z"/>
	<path class="st3" d="M184.3,193.2L158,218.9c0,0-20.4,22.4,2.3,46.2c0,0,24,23.5,24,23.5c6.9,0,14,0.9,20.8-0.3
		c5.5-1,8.9-4.5,12.6-8.2c0,0,28.1-27.8,28.1-27.8s8.5-12.4,22.9-4.1c0,0,36.8,36.8,36.9,36.9c5.7,5.7,18.4,3.5,25.8,3.5l26.3-26.4
		c0,0,11.4-10.1,6.7-31.5c0,0-2.8-7.7-6.5-12.1l-26.3-25.5c0,0-14.4-1.8-20.9,1.1c0,0-3.9,0-14.2,11.1l-26,26.1
		c0,0-9.6,11.4-22.9,0.3c0,0-33.3-33.7-33.3-33.7C206.7,190.5,194,192.7,184.3,193.2z"/>
</g>
</svg>
